<svg fill="none" height="14" viewBox="0 0 14 14" width="14" xmlns="http://www.w3.org/2000/svg"><path d="m13.2259 9.92194-1.4303-1.43091c-.1524-.15259-.3332-.27364-.5324-.35623-.1991-.0826-.4126-.12511-.6282-.12511s-.4291.04251-.6282.12511c-.19913.08259-.38003.20364-.53233.35623l-.29167.29166c-1.43748-1.20443-2.7653-2.53401-3.96783-3.97308l.29166-.29167c.30713-.30803.4796-.72526.4796-1.16025 0-.43498-.17247-.85222-.4796-1.16025l-1.43324-1.429164c-.3129-.29892-.72898-.465725-1.16171-.465725-.43274 0-.84882.166805-1.16171.465725l-.781668.785164c-.375618.37833-.609629.87437-.66274 1.40483-.05311.53047.077914 1.06306.371073 1.50834 2.330475 3.51157 5.339815 6.52149 8.850915 8.85269.44681.2905.97935.4199 1.50965.3668.5302-.053 1.0266-.2853 1.407-.6585l.7846-.7852c.1526-.1522.2736-.333.3562-.532.0825-.199.125-.4124.125-.6279s-.0425-.4289-.125-.6279c-.0826-.1991-.2036-.3799-.3562-.53207z" fill="#009ba6"/></svg>